<svg width="57" height="57" viewBox="0 0 57 57" fill="none" xmlns="http://www.w3.org/2000/svg">
<path d="M28.5 57C44.2401 57 57 44.2401 57 28.5C57 12.7599 44.2401 0 28.5 0C12.7599 0 0 12.7599 0 28.5C0 44.2401 12.7599 57 28.5 57Z" fill="#502082"/>
<path d="M5.43708 23.0884C5.44243 22.8375 5.54658 22.5988 5.72691 22.4242C5.90723 22.2496 6.14917 22.1532 6.40016 22.1559C6.64214 22.1639 6.87154 22.2656 7.03986 22.4396C7.20818 22.6137 7.30222 22.8463 7.30209 23.0884V31.1702C7.30343 31.4792 7.4268 31.7753 7.64535 31.9938C7.86389 32.2123 8.15992 32.3357 8.46899 32.3371H11.2105C11.3577 32.3091 11.5094 32.3141 11.6546 32.3515C11.7997 32.3889 11.9349 32.4578 12.0503 32.5535C12.1658 32.6491 12.2587 32.769 12.3225 32.9047C12.3863 33.0404 12.4194 33.1884 12.4194 33.3384C12.4194 33.4883 12.3863 33.6364 12.3225 33.772C12.2587 33.9077 12.1658 34.0276 12.0503 34.1232C11.9349 34.2189 11.7997 34.2878 11.6546 34.3253C11.5094 34.3627 11.3577 34.3676 11.2105 34.3397H6.40016C6.27479 34.3452 6.1496 34.3251 6.03227 34.2806C5.91493 34.2361 5.80791 34.1681 5.71775 34.0808C5.6276 33.9936 5.5562 33.8888 5.50794 33.7729C5.45968 33.6571 5.43557 33.5326 5.43708 33.4071V23.0884Z" fill="white"/>
<path d="M23.6795 23.0884C23.6849 22.8375 23.789 22.5988 23.9693 22.4242C24.1497 22.2496 24.3916 22.1532 24.6426 22.1559C24.8846 22.1639 25.114 22.2656 25.2823 22.4396C25.4506 22.6137 25.5447 22.8463 25.5445 23.0884V31.1702C25.5459 31.4792 25.6692 31.7753 25.8878 31.9938C26.1063 32.2123 26.4024 32.3357 26.7114 32.3371H29.4682C29.6155 32.3091 29.7671 32.3141 29.9123 32.3515C30.0575 32.3889 30.1926 32.4578 30.3081 32.5535C30.4235 32.6491 30.5165 32.769 30.5803 32.9047C30.6441 33.0404 30.6771 33.1884 30.6771 33.3384C30.6771 33.4883 30.6441 33.6364 30.5803 33.772C30.5165 33.9077 30.4235 34.0276 30.3081 34.1232C30.1926 34.2189 30.0575 34.2878 29.9123 34.3253C29.7671 34.3627 29.6155 34.3676 29.4682 34.3397H24.6426C24.5172 34.3452 24.392 34.3251 24.2747 34.2806C24.1574 34.2361 24.0503 34.1681 23.9602 34.0808C23.87 33.9936 23.7986 33.8888 23.7504 33.7729C23.7021 33.6571 23.678 33.5326 23.6795 33.4071V23.0884Z" fill="white"/>
<path d="M13.7583 34.3039C13.6268 34.2429 13.5089 34.1561 13.4116 34.0486C13.3144 33.9411 13.2398 33.8152 13.1922 33.6782C13.1447 33.5413 13.1252 33.3962 13.1349 33.2516C13.1446 33.1069 13.1833 32.9657 13.2487 32.8364L16.6934 22.6451C16.7676 22.4534 16.8981 22.2886 17.0677 22.1724C17.2373 22.0562 17.4381 21.994 17.6437 21.994C17.8493 21.994 18.0501 22.0562 18.2197 22.1724C18.3893 22.2886 18.5198 22.4534 18.594 22.6451L22.0591 32.867C22.6859 34.0593 20.831 35.0122 20.2807 33.8147L19.8731 32.7956C19.7846 32.5747 19.632 32.3852 19.4349 32.2517C19.2378 32.1182 19.0053 32.0468 18.7673 32.0466H16.6016C16.3547 32.0462 16.1138 32.1224 15.9121 32.2648C15.7104 32.4072 15.5578 32.6087 15.4755 32.8415L15.1341 33.7842C15.0014 34.0176 14.7912 34.1974 14.54 34.2923C14.2887 34.3872 14.0122 34.3913 13.7583 34.3039ZM18.6705 29.1624L17.8858 26.8184C17.8692 26.7686 17.8374 26.7253 17.7949 26.6947C17.7524 26.664 17.7012 26.6475 17.6488 26.6475C17.5964 26.6475 17.5452 26.664 17.5027 26.6947C17.4602 26.7253 17.4284 26.7686 17.4119 26.8184L16.6424 29.1369C16.6136 29.226 16.6067 29.3206 16.6224 29.4129C16.638 29.5051 16.6757 29.5922 16.7323 29.6668C16.7888 29.7413 16.8625 29.8011 16.9471 29.8411C17.0317 29.881 17.1247 29.8999 17.2182 29.8962L18.2017 29.8452C18.2835 29.8452 18.3641 29.8255 18.4367 29.7877C18.5092 29.7499 18.5716 29.6953 18.6186 29.6283C18.6656 29.5613 18.6958 29.484 18.7066 29.4029C18.7174 29.3218 18.7085 29.2393 18.6807 29.1624H18.6705Z" fill="white"/>
<path d="M32.9791 34.3396C32.7277 34.3396 32.4867 34.2398 32.3089 34.062C32.1312 33.8843 32.0313 33.6432 32.0313 33.3918V23.1037C32.0278 22.9783 32.0499 22.8535 32.0963 22.7369C32.1427 22.6203 32.2124 22.5144 32.3011 22.4257C32.3898 22.337 32.4957 22.2673 32.6123 22.2209C32.7289 22.1745 32.8537 22.1524 32.9791 22.1559H38.6913C38.84 22.1238 38.9939 22.1254 39.1419 22.1606C39.2899 22.1958 39.4281 22.2636 39.5464 22.3591C39.6648 22.4547 39.7602 22.5755 39.8258 22.7127C39.8914 22.8499 39.9254 23 39.9254 23.1521C39.9254 23.3042 39.8914 23.4544 39.8258 23.5916C39.7602 23.7288 39.6648 23.8496 39.5464 23.9451C39.4281 24.0407 39.2899 24.1085 39.1419 24.1436C38.9939 24.1788 38.84 24.1804 38.6913 24.1483H34.839C34.7375 24.1477 34.6369 24.1671 34.543 24.2054C34.4491 24.2438 34.3636 24.3004 34.2916 24.3719C34.2196 24.4434 34.1625 24.5284 34.1235 24.6221C34.0845 24.7158 34.0645 24.8163 34.0645 24.9178V26.0847C34.0658 26.2667 34.1387 26.4409 34.2674 26.5696C34.3962 26.6984 34.5704 26.7713 34.7524 26.7726H37.4429C38.8034 26.7726 38.8034 28.9484 37.4429 28.9484H34.7269C34.5512 28.9484 34.3827 29.0182 34.2585 29.1425C34.1343 29.2667 34.0645 29.4352 34.0645 29.6109V31.4759C34.0645 31.7043 34.1552 31.9233 34.3167 32.0848C34.4782 32.2463 34.6972 32.337 34.9256 32.337H38.727C38.8743 32.3091 39.0259 32.314 39.1711 32.3514C39.3163 32.3889 39.4514 32.4578 39.5669 32.5535C39.6823 32.6491 39.7753 32.769 39.8391 32.9047C39.9029 33.0403 39.936 33.1884 39.936 33.3383C39.936 33.4883 39.9029 33.6363 39.8391 33.772C39.7753 33.9077 39.6823 34.0276 39.5669 34.1232C39.4514 34.2189 39.3163 34.2878 39.1711 34.3252C39.0259 34.3626 38.8743 34.3676 38.727 34.3396H32.9791Z" fill="white"/>
<path d="M47.0074 34.2479C44.0571 34.3804 40.9946 32.3217 40.9946 28.2146C40.9946 24.1075 44.052 22.0693 47.0074 22.0693C47.7874 22.0935 48.5547 22.2722 49.2651 22.595C49.9755 22.9178 50.6149 23.3783 51.1461 23.9498C51.6773 24.5213 52.09 25.1926 52.3601 25.9246C52.6302 26.6567 52.7524 27.435 52.7197 28.2146C52.7197 32.1892 49.7999 34.2479 47.0074 34.2479ZM46.8342 24.2451C45.0456 24.2451 43.0991 25.57 43.0991 28.2146C43.0725 28.7256 43.1502 29.2367 43.3274 29.7167C43.5046 30.1967 43.7777 30.6356 44.13 31.0067C44.4823 31.3778 44.9064 31.6734 45.3766 31.8753C45.8467 32.0772 46.3531 32.1814 46.8648 32.1814C47.3765 32.1814 47.8828 32.0772 48.3529 31.8753C48.8231 31.6734 49.2472 31.3778 49.5995 31.0067C49.9518 30.6356 50.2249 30.1967 50.4021 29.7167C50.5794 29.2367 50.657 28.7256 50.6305 28.2146C50.6583 27.7007 50.5806 27.1864 50.4019 26.7037C50.2233 26.2209 49.9475 25.7799 49.5918 25.4079C49.236 25.0359 48.8077 24.7408 48.3335 24.5408C47.8592 24.3408 47.3489 24.2402 46.8342 24.2451Z" fill="white"/>
</svg>
